{
	"asset":{
		"generator":"Khronos glTF Blender I/O v3.6.27",
		"version":"2.0"
	},
	"scene":0,
	"scenes":[
		{
			"name":"Scene",
			"nodes":[
				0,
				1,
				2,
				3,
				4
			]
		}
	],
	"nodes":[
		{
			"mesh":0,
			"name":"Pollen",
			"rotation":[
				-0.04302449896931648,
				-0.00255797291174531,
				0.03198941424489021,
				0.998558521270752
			],
			"scale":[
				0.40027159452438354,
				0.17470769584178925,
				0.40027159452438354
			],
			"translation":[
				0.003526561427861452,
				5.226193428039551,
				0.0008577918051742017
			]
		},
		{
			"mesh":1,
			"name":"Stem",
			"scale":[
				0.34953784942626953,
				0.34953784942626953,
				0.34953784942626953
			],
			"translation":[
				2.615708581288345e-06,
				8.877774234861135e-06,
				0
			]
		},
		{
			"mesh":2,
			"name":"Leaf2",
			"rotation":[
				0.4532872140407562,
				-0.8418876528739929,
				-0.24601568281650543,
				0.1588464081287384
			],
			"scale":[
				1,
				1,
				2.07071590423584
			],
			"translation":[
				-0.19649913907051086,
				1.7679896354675293,
				-0.6624500155448914
			]
		},
		{
			"mesh":3,
			"name":"Petals2",
			"rotation":[
				-0.021809693425893784,
				0.49952414631843567,
				-0.03777549788355827,
				0.8652011752128601
			],
			"translation":[
				-1.3045411833445542e-05,
				4.812917232513428,
				0.000518939399626106
			]
		},
		{
			"mesh":4,
			"name":"Leaf1",
			"rotation":[
				-0.40349534153938293,
				0.09261565655469894,
				0.3922902047634125,
				0.8214149475097656
			],
			"scale":[
				1,
				1,
				2.07071590423584
			],
			"translation":[
				-0.04582563787698746,
				2.3700110912323,
				0.561223566532135
			]
		}
	],
	"materials":[
		{
			"doubleSided":true,
			"name":"Pollen",
			"pbrMetallicRoughness":{
				"baseColorFactor":[
					0.8000000715255737,
					0.464229941368103,
					0.020146213471889496,
					1
				],
				"metallicFactor":0,
				"roughnessFactor":0.5
			}
		},
		{
			"doubleSided":true,
			"name":"Stem",
			"pbrMetallicRoughness":{
				"baseColorFactor":[
					0.03781035542488098,
					0.2585451900959015,
					0,
					1
				],
				"metallicFactor":0,
				"roughnessFactor":0.5
			}
		},
		{
			"doubleSided":true,
			"name":"Leaf",
			"pbrMetallicRoughness":{}
		},
		{
			"doubleSided":true,
			"name":"Petals",
			"pbrMetallicRoughness":{
				"baseColorFactor":[
					0.22973094880580902,
					0.6675506830215454,
					0.8000000715255737,
					1
				],
				"metallicFactor":0,
				"roughnessFactor":0.5
			}
		},
		{
			"doubleSided":true,
			"name":"Leaf.001",
			"pbrMetallicRoughness":{}
		}
	],
	"meshes":[
		{
			"name":"Sphere.001",
			"primitives":[
				{
					"attributes":{
						"POSITION":0,
						"NORMAL":1,
						"TEXCOORD_0":2
					},
					"indices":3,
					"material":0
				}
			]
		},
		{
			"name":"Circle.001",
			"primitives":[
				{
					"attributes":{
						"POSITION":4,
						"NORMAL":5,
						"TEXCOORD_0":6
					},
					"indices":7,
					"material":1
				}
			]
		},
		{
			"name":"Circle.002",
			"primitives":[
				{
					"attributes":{
						"POSITION":8,
						"NORMAL":9,
						"TEXCOORD_0":10
					},
					"indices":11,
					"material":2
				}
			]
		},
		{
			"name":"Circle.004",
			"primitives":[
				{
					"attributes":{
						"POSITION":12,
						"NORMAL":13,
						"TEXCOORD_0":14
					},
					"indices":15,
					"material":3
				}
			]
		},
		{
			"name":"Circle.005",
			"primitives":[
				{
					"attributes":{
						"POSITION":16,
						"NORMAL":17,
						"TEXCOORD_0":18
					},
					"indices":19,
					"material":4
				}
			]
		}
	],
	"accessors":[
		{
			"bufferView":0,
			"componentType":5126,
			"count":7936,
			"max":[
				0.9500991702079773,
				0.010496139526367188,
				0.8847520351409912
			],
			"min":[
				-1.024362325668335,
				-1.9846553802490234,
				-1.089709758758545
			],
			"type":"VEC3"
		},
		{
			"bufferView":1,
			"componentType":5126,
			"count":7936,
			"type":"VEC3"
		},
		{
			"bufferView":2,
			"componentType":5126,
			"count":7936,
			"type":"VEC2"
		},
		{
			"bufferView":3,
			"componentType":5123,
			"count":11904,
			"type":"SCALAR"
		},
		{
			"bufferView":4,
			"componentType":5126,
			"count":7168,
			"max":[
				0.9396741986274719,
				14.439231872558594,
				0.8515642881393433
			],
			"min":[
				-0.9369866251945496,
				-2.5872292098938487e-05,
				-1.0250962972640991
			],
			"type":"VEC3"
		},
		{
			"bufferView":5,
			"componentType":5126,
			"count":7168,
			"type":"VEC3"
		},
		{
			"bufferView":6,
			"componentType":5126,
			"count":7168,
			"type":"VEC2"
		},
		{
			"bufferView":7,
			"componentType":5123,
			"count":10752,
			"type":"SCALAR"
		},
		{
			"bufferView":8,
			"componentType":5126,
			"count":488,
			"max":[
				0.2926114797592163,
				0.15187513828277588,
				0.2799515128135681
			],
			"min":[
				-0.28267550468444824,
				-0.2184666395187378,
				-0.3183348774909973
			],
			"type":"VEC3"
		},
		{
			"bufferView":9,
			"componentType":5126,
			"count":488,
			"type":"VEC3"
		},
		{
			"bufferView":10,
			"componentType":5126,
			"count":488,
			"type":"VEC2"
		},
		{
			"bufferView":11,
			"componentType":5123,
			"count":732,
			"type":"SCALAR"
		},
		{
			"bufferView":12,
			"componentType":5126,
			"count":2784,
			"max":[
				2.144439220428467,
				1.0623235702514648,
				2.3170320987701416
			],
			"min":[
				-2.223872184753418,
				-0.011102676391601562,
				-2.4396562576293945
			],
			"type":"VEC3"
		},
		{
			"bufferView":13,
			"componentType":5126,
			"count":2784,
			"type":"VEC3"
		},
		{
			"bufferView":14,
			"componentType":5126,
			"count":2784,
			"type":"VEC2"
		},
		{
			"bufferView":15,
			"componentType":5123,
			"count":4176,
			"type":"SCALAR"
		},
		{
			"bufferView":16,
			"componentType":5126,
			"count":488,
			"max":[
				0.29261183738708496,
				0.15187525749206543,
				0.2799513339996338
			],
			"min":[
				-0.28267520666122437,
				-0.21846657991409302,
				-0.31833523511886597
			],
			"type":"VEC3"
		},
		{
			"bufferView":17,
			"componentType":5126,
			"count":488,
			"type":"VEC3"
		},
		{
			"bufferView":18,
			"componentType":5126,
			"count":488,
			"type":"VEC2"
		},
		{
			"bufferView":19,
			"componentType":5123,
			"count":732,
			"type":"SCALAR"
		}
	],
	"bufferViews":[
		{
			"buffer":0,
			"byteLength":95232,
			"byteOffset":0,
			"target":34962
		},
		{
			"buffer":0,
			"byteLength":95232,
			"byteOffset":95232,
			"target":34962
		},
		{
			"buffer":0,
			"byteLength":63488,
			"byteOffset":190464,
			"target":34962
		},
		{
			"buffer":0,
			"byteLength":23808,
			"byteOffset":253952,
			"target":34963
		},
		{
			"buffer":0,
			"byteLength":86016,
			"byteOffset":277760,
			"target":34962
		},
		{
			"buffer":0,
			"byteLength":86016,
			"byteOffset":363776,
			"target":34962
		},
		{
			"buffer":0,
			"byteLength":57344,
			"byteOffset":449792,
			"target":34962
		},
		{
			"buffer":0,
			"byteLength":21504,
			"byteOffset":507136,
			"target":34963
		},
		{
			"buffer":0,
			"byteLength":5856,
			"byteOffset":528640,
			"target":34962
		},
		{
			"buffer":0,
			"byteLength":5856,
			"byteOffset":534496,
			"target":34962
		},
		{
			"buffer":0,
			"byteLength":3904,
			"byteOffset":540352,
			"target":34962
		},
		{
			"buffer":0,
			"byteLength":1464,
			"byteOffset":544256,
			"target":34963
		},
		{
			"buffer":0,
			"byteLength":33408,
			"byteOffset":545720,
			"target":34962
		},
		{
			"buffer":0,
			"byteLength":33408,
			"byteOffset":579128,
			"target":34962
		},
		{
			"buffer":0,
			"byteLength":22272,
			"byteOffset":612536,
			"target":34962
		},
		{
			"buffer":0,
			"byteLength":8352,
			"byteOffset":634808,
			"target":34963
		},
		{
			"buffer":0,
			"byteLength":5856,
			"byteOffset":643160,
			"target":34962
		},
		{
			"buffer":0,
			"byteLength":5856,
			"byteOffset":649016,
			"target":34962
		},
		{
			"buffer":0,
			"byteLength":3904,
			"byteOffset":654872,
			"target":34962
		},
		{
			"buffer":0,
			"byteLength":1464,
			"byteOffset":658776,
			"target":34963
		}
	],
	"buffers":[
		{
			"byteLength":660240,
			"uri":"data:application/octet-stream;base64,"
		}
	]
}
