{
	"asset":{
		"generator":"Khronos glTF Blender I/O v3.6.27",
		"version":"2.0"
	},
	"scene":0,
	"scenes":[
		{
			"name":"Scene",
			"nodes":[
				0
			]
		}
	],
	"nodes":[
		{
			"mesh":0,
			"name":"Torus.005",
			"rotation":[
				1,
				0,
				0,
				7.549790126404332e-08
			],
			"scale":[
				0.8778048753738403,
				0.8778048753738403,
				0.8778048753738403
			],
			"translation":[
				0,
				0.2673614025115967,
				0
			]
		}
	],
	"materials":[
		{
			"doubleSided":true,
			"name":"Hole",
			"pbrMetallicRoughness":{
				"baseColorFactor":[
					0,
					0,
					0,
					1
				],
				"metallicFactor":0,
				"roughnessFactor":0.5
			}
		},
		{
			"doubleSided":true,
			"name":"Hive",
			"pbrMetallicRoughness":{}
		}
	],
	"meshes":[
		{
			"name":"Torus.018",
			"primitives":[
				{
					"attributes":{
						"POSITION":0,
						"NORMAL":1,
						"TEXCOORD_0":2
					},
					"indices":3,
					"material":0
				},
				{
					"attributes":{
						"POSITION":4,
						"NORMAL":5,
						"TEXCOORD_0":6
					},
					"indices":7,
					"material":1
				}
			]
		}
	],
	"accessors":[
		{
			"bufferView":0,
			"componentType":5126,
			"count":305,
			"max":[
				1.3622866868972778,
				-0.31297916173934937,
				0.16931602358818054
			],
			"min":[
				1.1624935865402222,
				-0.6516113877296448,
				-0.16931623220443726
			],
			"type":"VEC3"
		},
		{
			"bufferView":1,
			"componentType":5126,
			"count":305,
			"type":"VEC3"
		},
		{
			"bufferView":2,
			"componentType":5126,
			"count":305,
			"type":"VEC2"
		},
		{
			"bufferView":3,
			"componentType":5123,
			"count":1728,
			"type":"SCALAR"
		},
		{
			"bufferView":4,
			"componentType":5126,
			"count":39656,
			"max":[
				1.4072635173797607,
				0.2988208830356598,
				1.4072633981704712
			],
			"min":[
				-1.4072635173797607,
				-2.367232322692871,
				-1.4072635173797607
			],
			"type":"VEC3"
		},
		{
			"bufferView":5,
			"componentType":5126,
			"count":39656,
			"type":"VEC3"
		},
		{
			"bufferView":6,
			"componentType":5126,
			"count":39656,
			"type":"VEC2"
		},
		{
			"bufferView":7,
			"componentType":5123,
			"count":219264,
			"type":"SCALAR"
		}
	],
	"bufferViews":[
		{
			"buffer":0,
			"byteLength":3660,
			"byteOffset":0,
			"target":34962
		},
		{
			"buffer":0,
			"byteLength":3660,
			"byteOffset":3660,
			"target":34962
		},
		{
			"buffer":0,
			"byteLength":2440,
			"byteOffset":7320,
			"target":34962
		},
		{
			"buffer":0,
			"byteLength":3456,
			"byteOffset":9760,
			"target":34963
		},
		{
			"buffer":0,
			"byteLength":475872,
			"byteOffset":13216,
			"target":34962
		},
		{
			"buffer":0,
			"byteLength":475872,
			"byteOffset":489088,
			"target":34962
		},
		{
			"buffer":0,
			"byteLength":317248,
			"byteOffset":964960,
			"target":34962
		},
		{
			"buffer":0,
			"byteLength":438528,
			"byteOffset":1282208,
			"target":34963
		}
	],
	"buffers":[
		{
			"byteLength":1720736,
			"uri":"data:application/octet-stream;base64,"
		}
	]
}
